<?xml version="1.0" encoding="UTF-8"?>
<!-- Created with Inkscape (http://www.inkscape.org/) -->
<svg width="27.608" height="27.5" version="1.1" viewBox="0 0 27.608 27.5" xmlns="http://www.w3.org/2000/svg">
 <g transform="matrix(.43261 0 0 .43469 -28.994 -5.6937)">
  <path d="m112.49 56.358-1.8871 1.6515s-2.2455 1.424-3.4733 1.9136c-1.389 0.55385-4.3405 1.1328-4.3405 1.1328s-2.6038 0.47492-3.9111 0.38923c-1.3234-0.08674-3.8738-0.90743-3.8738-0.90743s-2.4784-1.03-3.651-1.677c-1.4733-0.81292-4.2287-2.7572-4.2287-2.7572l-2.88-3.1332-1.6093-2.8893c-0.65426-3.0697-0.92961-5.4356 0.10641-9.5159 0.30425-1.1983 1.2377-3.4964 1.2377-3.4964l1.625-3.2378 1.9911-2.478 3.4214-2.0014 3.2782-1.1057-2.9029-2.3761-4.6728-2.8971-7.1003-3.6225-2.7494 1.1652s-1.3388 1.3316-1.7015 2.1786c-0.26236 0.61275-0.39266 1.3196-0.29102 1.9784 0.16676 1.0809 1.4336 2.9511 1.4336 2.9511l4.8147 6.1054-1.729 4.0642-8.3395 1.5529s-2.7697 0.3661-3.571 1.3556c-0.6206 0.76636-0.44196 1.9376-0.45199 2.9236-0.0077 0.76103 0.04734 1.5461 0.30284 2.263 0.24561 0.68818 1.1504 1.866 1.1504 1.866l1.9573 0.79212 4.0186 0.75773 5.2583 0.9138 1.6648 4.4495-3.2534 4.5021-1.8267 3.5062-0.27483 1.1828s-0.04179 1.311 0.17916 1.9116c0.27821 0.75643 0.78876 1.4408 1.388 1.9798 0.83379 0.75001 1.8247 1.5492 2.9433 1.6299 1.3318 0.09611 3.7467-1.4174 3.7467-1.4174l6.7105-5.6201 2.6699 1.1337s1.6164 8.3605 3.0484 11.466c0.49667 1.0772 2.0779 1.3897 3.2638 1.4184 1.3349 0.03225 2.7631-0.51434 3.7467-1.4174 0.54979-0.50478 0.96782-2.0191 0.96782-2.0191l1.8472-9.3388 9.3424-6.9508z" fill="#3874ff"/>
  <path d="m84.504 30.738c0.34814-2.3824 7.361-5.3312 7.361-5.3312l2.1857-9.2558s0.47288-1.4963 1.0409-1.9791c1.0161-0.86368 2.4638-1.354 3.7973-1.2698 1.1845 0.07481 2.7541 0.44859 3.2115 1.5439 1.3189 3.158 2.6316 11.572 2.6316 11.572l2.6282 1.2364 6.9129-5.352s2.4692-1.4176 3.7973-1.2698c1.1154 0.12421 2.077 0.96102 2.8834 1.7426 0.57952 0.56172 1.0651 1.2653 1.3158 2.0315 0.1991 0.60856 0.10975 1.9164 0.10975 1.9164l-0.31768 1.1707-1.9534 3.4309-3.4161 4.3699 1.5029 4.5091 5.2239 1.1176 3.9902 0.9134 1.9281 0.86744s0.8619 1.2117 1.0825 1.9086c0.22943 0.72601 0.256 1.5123 0.22064 2.2722-0.0458 0.98452 0.0903 2.1613-0.55798 2.9025-0.83696 0.95707-3.6193 1.2148-3.6193 1.2148l-8.3938 1.2261-1.8761 3.9921 4.592 6.2858s1.1987 1.9174 1.3262 3.0035c0.0777 0.66195-0.0782 1.3629-0.36275 1.9647-0.39335 0.83194-1.7802 2.1097-1.7802 2.1097l-2.791 1.0567-6.9672-3.8949-4.5666-3.0758-1.3191-1.7471 2.4019-1.3486c2.8942-2.2379 5.785-4.5643 7.2456-7.7904 1.7915-3.9569 2.6073-8.8132 1.3049-12.955-1.2167-3.8694-3.934-6.526-7.9341-9.2521-5.9997-3.8993-13.353-0.46783-19.026 2.3416 0 0-4.1604 0.20434-3.8123-2.1781z" fill="#25b003"/>
  <ellipse cx="100.37" cy="43.709" rx="15.901" ry="15.182" fill="#25b003" stroke="#25b003" stroke-width="3.0555"/>
  <ellipse cx="99.289" cy="44.543" rx="16.24" ry="16.162" fill="#3874ff" stroke="#3874ff" stroke-width="3.186"/>
 </g>
 <g transform="matrix(.42751 .22657 -.23211 .41731 -.48949 -20.087)" stroke="#3874ff">
  <path d="m73.355 39.402-27.436 14.832" fill="#fff" stroke-width="3.5496"/>
  <path d="m51.231 32.784 15.475 28.261" fill="none" stroke-width="4.8209"/>
 </g>
 <ellipse cx="13.988" cy="13.393" rx="5.8471" ry="5.8821" fill="#fff"/>
</svg>
