<?xml version="1.0" encoding="UTF-8"?>
<!-- Created with Inkscape (http://www.inkscape.org/) -->
<svg width="450.84" height="74.079" version="1.1" viewBox="0 0 450.84 74.079" xmlns="http://www.w3.org/2000/svg">
 <g transform="translate(-41.478 -3.5705)">
  <path d="m135.44 52.473-4.5972 5.1724-1.8871 1.6515s-2.2455 1.424-3.4733 1.9136c-1.389 0.55385-4.3405 1.1328-4.3405 1.1328s-2.6038 0.47492-3.9111 0.38923c-1.3234-0.08674-3.8738-0.90743-3.8738-0.90743s-2.4784-1.03-3.651-1.677c-1.4733-0.81292-4.2287-2.7572-4.2287-2.7572l-2.88-3.1332-1.6093-2.8893c-0.65426-3.0697-0.92961-5.4356 0.10641-9.5159 0.30425-1.1983 1.2377-3.4964 1.2377-3.4964l1.625-3.2378 1.9911-2.478 2.6939-2.7254 1.4998-1.9102-0.39703-0.8476-4.6728-2.8971-7.1003-3.6225-2.7494 1.1652s-1.3388 1.3316-1.7015 2.1786c-0.26236 0.61275-0.39266 1.3196-0.29102 1.9784 0.16676 1.0809 1.4336 2.9511 1.4336 2.9511l4.8147 6.1054-1.729 4.0642-8.3395 1.5529s-2.7697 0.3661-3.571 1.3556c-0.6206 0.76636-0.44196 1.9376-0.45199 2.9236-0.0077 0.76103 0.04734 1.5461 0.30284 2.263 0.24561 0.68818 1.1504 1.866 1.1504 1.866l1.9573 0.79212 4.0186 0.75773 5.2583 0.9138 1.6648 4.4495-3.2534 4.5021-1.8267 3.5062-0.27483 1.1828s-0.04179 1.311 0.17916 1.9116c0.27821 0.75643 0.78876 1.4408 1.388 1.9798 0.83379 0.75001 1.8247 1.5492 2.9433 1.6299 1.3318 0.09611 3.7467-1.4174 3.7467-1.4174l6.7105-5.6201 2.6699 1.1337s1.6164 8.3605 3.0484 11.466c0.49667 1.0772 2.0779 1.3897 3.2638 1.4184 1.3349 0.03225 2.7631-0.51434 3.7467-1.4174 0.54979-0.50478 0.96782-2.0191 0.96782-2.0191l1.8472-9.3388 4.3307-1.7217 4.6827 3.486s2.82 2.5752 4.5801 2.6335c0.53111 0.01761 1.0116-0.37581 1.4316-0.70136 0.53869-0.41754 1.329-1.5539 1.329-1.5539s0.68104-0.9347 0.97764-1.4302c0.34972-0.58418 0.95838-1.1318 0.94181-1.8125-0.0562-2.3069-3.4871-5.9802-3.4871-5.9802z" fill="#85A9FF"/>
  <path d="m45.17 34.553-2.2352-6.4262s-2.0168-4.6041-1.3039-6.7988c0.21035-0.64755 0.96631-0.96207 1.4901-1.397 0.44428-0.36889 1.397-1.0245 1.397-1.0245s1.1228-0.80946 1.7695-1.0245c0.50426-0.16764 1.0881-0.37921 1.5833-0.18627 1.6409 0.63942 3.4459 4.0048 3.4459 4.0048l3.2597 4.843 4.6567-0.18627 4.843-8.1958s0.89709-1.2897 1.5833-1.5833c1.2276-0.5253 2.7563-0.56672 4.0048-0.09313 1.1091 0.42072 2.4969 1.2405 2.6077 2.4215 0.31961 3.4051-0.93134 11.828-0.93134 11.828l2.1421 1.9558 8.1958-3.0734s2.7804-0.62594 4.0048-0.09313c1.0283 0.4475 1.6977 1.5303 2.2352 2.5146 0.38628 0.70737 0.64064 1.5225 0.65194 2.3283 9e-3 0.63994-0.46567 1.8627-0.46567 1.8627l-0.65194 1.0245-2.8871 2.7009-4.5636 3.1665 0.09313 4.7498 4.6567 2.6077 3.5391 2.0489 1.5833 1.397s0.4625 1.4114 0.46567 2.1421c0.0033 0.76106-0.2057 1.5199-0.46567 2.2352-0.33684 0.92681-0.55718 2.0909-1.397 2.6077-1.0843 0.66732-3.8185 0.09313-3.8185 0.09313l-8.382-1.3039-2.9803 3.2597 2.5146 7.3576s0.57407 2.1848 0.37254 3.2597c-0.12284 0.65514-0.48042 1.2787-0.93134 1.7695-0.62335 0.67861-2.3283 1.4901-2.3283 1.4901l-2.9803 0.18627-5.4949-5.7743-3.4459-4.2842-0.09313-0.93134 2.0489-1.3039 3.4459-1.6764 2.7009-1.6764 2.6077-2.5146s1.6435-1.8578 2.3283-2.8871c2.3319-3.5049 2.8577-5.8281 3.2597-8.9408l-0.5588-3.2597-1.6764-3.9116s-1.9535-2.7488-3.0734-4.0048c-0.89128-0.99959-2.8871-2.794-2.8871-2.794s-2.1333-1.6209-3.3528-2.1421c-1.2047-0.51487-3.8185-0.93134-3.8185-0.93134s-2.9764-0.43383-4.4704-0.37254c-1.3207 0.05419-3.9116 0.65194-3.9116 0.65194l-2.3283 0.93134z" fill="#25b003"/>
 </g>
 <g transform="rotate(1.0708 268.5 -2143.7)" stroke="#85A9FF" stroke-width="1.4098">
  <path d="m70.431 40.388-24.691 14.583" fill="#fff"/>
  <path d="m52.155 35.391 13.784 25.146" fill="#85A9FF"/>
 </g>
 <g transform="matrix(.91308 .47713 -.49573 .87883 46.909 -28.379)" stroke="#85A9FF">
  <path d="m73.355 39.402-27.436 14.832" fill="#fff" stroke-width="1.4688"/>
  <path d="m50.465 32.278 15.475 28.261" fill="none" stroke-width="1.4917"/>
 </g>
 <path d="m102.05 8.5692q-0.66304-0.42233-1.3924-0.62668-0.72933-0.21798-1.525-0.21798-1.578 0-2.5063 0.53132-0.41108 0.2316-0.41108 0.50407 0 0.31334 0.55695 0.61306 0.42434 0.21798 1.8963 0.42233 2.7052 0.38146 3.766 0.76292 1.3924 0.50407 2.1482 1.4986t0.75586 2.098q0 1.4986-1.2863 2.5067-1.8432 1.4577-4.7871 1.4577-1.1802 0-2.188-0.21798-0.99454-0.20435-1.83-0.61306-0.19891 0.17711-0.42434 0.27247-0.22543 0.09537-0.46412 0.09537-0.63651 0-1.0211-0.42233-0.3713-0.43595-0.3713-1.4441v-0.94002q0-1.0081 0.3713-1.4305 0.38455-0.43595 0.99454-0.43595 0.49064 0 0.82216 0.28609 0.33152 0.27247 0.51717 0.95365 0.62325 0.54494 1.4985 0.83104 0.8752 0.27247 2.0156 0.27247 1.8698 0 2.9041-0.59944 0.49064-0.29972 0.49064-0.62668 0-0.54494-0.70281-0.89915t-2.9041-0.59944q-3.2754-0.35421-4.376-1.3624-1.1006-0.99452-1.1006-2.4522 0-1.4986 1.2332-2.4931 1.6708-1.3624 4.376-1.3624 0.94151 0 1.8034 0.19073 0.87521 0.17711 1.6708 0.55857 0.25196-0.19073 0.46412-0.28609 0.22544-0.095365 0.41109-0.095365 0.55695 0 0.92824 0.43595 0.37129 0.42233 0.37129 1.4305v0.68118q0 0.91278-0.21216 1.2397-0.42434 0.62668-1.1537 0.62668-0.49064 0-0.86194-0.31334t-0.47738-0.83104zm20.183 4.3323h-11.152q0.42434 1.0899 1.4984 1.7574 1.0874 0.66755 2.9306 0.66755 1.5117 0 4.018-0.66755 1.0343-0.27247 1.4322-0.27247 0.54368 0 0.91498 0.39508t0.3713 0.99452q0 0.54494-0.39783 0.9264-0.53042 0.50407-2.5858 0.96727-2.0554 0.44958-3.9517 0.44958-3.2621 0-5.2247-1.8937-1.9493-1.8937-1.9493-4.6593 0-2.9427 2.1084-4.7819 2.1217-1.8528 4.8799-1.8528 1.6576 0 3.0367 0.59944 1.3924 0.59944 2.0687 1.2942 0.95477 1.0081 1.578 2.4931 0.42434 1.0354 0.42434 2.3977zm-3.0102-2.7928q-0.62325-1.1989-1.6311-1.7847-1.0078-0.59944-2.4002-0.59944-1.3791 0-2.3869 0.59944-1.0078 0.58581-1.6443 1.7847zm11.921-4.8091v1.7438q1.7106-1.267 2.6919-1.6893 0.99454-0.42233 1.8565-0.42233 1.3261 0 2.5726 1.0081 0.84867 0.68118 0.84867 1.3896 0 0.59944-0.41107 1.0218-0.39782 0.40871-0.96803 0.40871-0.50391 0-1.0609-0.51769-0.55694-0.51769-0.99454-0.51769-0.57021 0-1.7106 0.73567-1.1272 0.73567-2.8245 2.207v4.2097h3.8721q0.98128 0 1.3924 0.39508 0.42433 0.38146 0.42433 1.0081 0 0.61306-0.42433 1.0081-0.41109 0.38146-1.3924 0.38146h-8.2083q-0.98129 0-1.4056-0.38146-0.41108-0.39508-0.41108-1.0218 0-0.61306 0.41108-0.99452 0.42434-0.39508 1.4056-0.39508h1.6178v-6.7845h-0.98128q-0.98128 0-1.4056-0.38146-0.41108-0.39508-0.41108-1.0218 0-0.61306 0.41108-0.99452 0.42435-0.39508 1.4056-0.39508zm16.881 8.9779 2.9306-6.1851q-1.0874 0-1.3924-0.19073-0.66303-0.42233-0.66303-1.2125 0-0.61306 0.41108-0.99452 0.42434-0.39508 1.4056-0.39508h3.7262q0.98129 0 1.3924 0.39508 0.42434 0.38146 0.42434 1.0081 0 0.61306-0.42434 1.0081-0.41108 0.38146-1.3924 0.38146h-0.45086l-4.5484 9.5774h-2.8378l-4.5484-9.5774h-0.38455q-0.98128 0-1.4056-0.38146-0.41108-0.39508-0.41108-1.0218 0-0.61306 0.41108-0.99452 0.42435-0.39508 1.4056-0.39508h3.6467q0.96802 0 1.3791 0.39508 0.42435 0.38146 0.42435 1.0081 0 0.77654-0.63651 1.1852-0.31827 0.20435-1.4189 0.20435zm17.252-14.277v2.9563h-3.2356v-2.9563zm0.37129 5.2996v9.5774h3.2621q0.98128 0 1.3924 0.39508 0.42434 0.38146 0.42434 1.0081 0 0.61306-0.42434 1.0081-0.41108 0.38146-1.3924 0.38146h-9.2427q-0.98128 0-1.4056-0.38146-0.41109-0.39508-0.41109-1.0218 0-0.61306 0.41109-0.99452 0.42434-0.39508 1.4056-0.39508h3.2621v-6.7845h-2.188q-0.96803 0-1.3924-0.38146-0.42434-0.39508-0.42434-1.0218 0-0.61306 0.41108-0.99452 0.42434-0.39508 1.4056-0.39508zm17.889 3.2697q-0.66304-0.42233-1.3924-0.62668-0.72933-0.21798-1.525-0.21798-1.578 0-2.5063 0.53132-0.41108 0.2316-0.41108 0.50407 0 0.31334 0.55695 0.61306 0.42434 0.21798 1.8963 0.42233 2.7052 0.38146 3.766 0.76292 1.3924 0.50407 2.1482 1.4986 0.75585 0.99452 0.75585 2.098 0 1.4986-1.2863 2.5067-1.8432 1.4577-4.7871 1.4577-1.1802 0-2.188-0.21798-0.99455-0.20435-1.83-0.61306-0.1989 0.17711-0.42434 0.27247-0.22543 0.09537-0.46412 0.09537-0.63651 0-1.0211-0.42233-0.3713-0.43595-0.3713-1.4441v-0.94002q0-1.0081 0.3713-1.4305 0.38456-0.43595 0.99455-0.43595 0.49064 0 0.82216 0.28609 0.33152 0.27247 0.51717 0.95365 0.62325 0.54494 1.4984 0.83104 0.8752 0.27247 2.0156 0.27247 1.8698 0 2.9041-0.59944 0.49064-0.29972 0.49064-0.62668 0-0.54494-0.70282-0.89915-0.70281-0.35421-2.9041-0.59944-3.2754-0.35421-4.376-1.3624-1.1006-0.99452-1.1006-2.4522 0-1.4986 1.2332-2.4931 1.6708-1.3624 4.376-1.3624 0.9415 0 1.8034 0.19073 0.8752 0.17711 1.6708 0.55857 0.25195-0.19073 0.46412-0.28609 0.22544-0.095365 0.41108-0.095365 0.55695 0 0.92825 0.43595 0.37129 0.42233 0.37129 1.4305v0.68118q0 0.91278-0.21216 1.2397-0.42435 0.62668-1.1537 0.62668-0.49065 0-0.86194-0.31334-0.3713-0.31334-0.47738-0.83104zm20.183 4.3323h-11.152q0.42434 1.0899 1.4984 1.7574 1.0874 0.66755 2.9306 0.66755 1.5117 0 4.018-0.66755 1.0343-0.27247 1.4322-0.27247 0.54368 0 0.91498 0.39508t0.3713 0.99452q0 0.54494-0.39782 0.9264-0.53043 0.50407-2.5858 0.96727-2.0554 0.44958-3.9517 0.44958-3.2621 0-5.2247-1.8937-1.9493-1.8937-1.9493-4.6593 0-2.9427 2.1084-4.7819 2.1217-1.8528 4.8799-1.8528 1.6576 0 3.0367 0.59944 1.3924 0.59944 2.0687 1.2942 0.95476 1.0081 1.578 2.4931 0.42435 1.0354 0.42435 2.3977zm-3.0102-2.7928q-0.62325-1.1989-1.6311-1.7847-1.0078-0.59944-2.4002-0.59944-1.3791 0-2.3869 0.59944-1.0078 0.58581-1.6443 1.7847zm33.019-4.305q0.49064-0.47682 1.0078-0.47682 0.58347 0 0.95476 0.43595 0.38457 0.42233 0.38457 1.4168v1.7983q0 1.0081-0.38457 1.4305-0.37129 0.42233-0.98128 0.42233-0.55695 0-0.94151-0.32697-0.27847-0.24522-0.4376-0.99452-0.15913-0.76292-0.76912-1.1308-1.0741-0.65393-2.745-0.65393-1.9228 0-3.0897 1.158-1.1537 1.158-1.1537 2.9291 0 1.6348 1.1139 2.5885 1.1139 0.94002 3.6997 0.94002 1.6974 0 2.7715-0.35421 0.63652-0.21798 1.2067-0.73567 0.57021-0.53132 1.0343-0.53132 0.55695 0 0.95476 0.42233 0.41109 0.42233 0.41109 0.99452 0 0.9264-1.2332 1.7574-1.83 1.2397-5.3573 1.2397-3.1693 0-4.933-1.3487-2.3869-1.8119-2.3869-4.959 0-2.9836 1.9361-4.9317 1.936-1.9618 5.0523-1.9618 1.1272 0 2.0952 0.21798t1.7902 0.65393zm19.122 5.9126q0 1.6076-0.8752 3.1198-0.86195 1.4986-2.5858 2.3977-1.7106 0.88553-3.5804 0.88553-1.8565 0-3.5538-0.87191-1.6974-0.88553-2.5858-2.3977-0.88847-1.5122-0.88847-3.1607 0-1.6757 0.90173-3.2833 0.90172-1.6212 2.5858-2.5476 1.6974-0.9264 3.5406-0.9264 1.8565 0 3.5671 0.95365 1.7239 0.94002 2.5991 2.5476 0.8752 1.594 0.8752 3.2833zm-2.7184 0.01362q0-1.3487-0.94151-2.4795-1.2863-1.5258-3.3815-1.5258-1.8432 0-3.0765 1.2125-1.2332 1.2125-1.2332 2.8065 0 1.3079 1.2465 2.4522 1.2465 1.1308 3.0632 1.1308 1.83 0 3.0765-1.1308 1.2465-1.1444 1.2465-2.4659zm7.7575-6.4303v0.79017q0.66303-0.66755 1.1935-0.91278 0.54368-0.25885 1.2465-0.25885 0.59673 0 1.1802 0.29972 0.58347 0.29972 1.1404 0.89915 0.70281-0.59944 1.4189-0.88553 0.72934-0.29972 1.4852-0.29972 1.5117 0 2.4532 0.83104 1.2465 1.0899 1.2465 2.8609v6.2532q0.84869 0 1.2598 0.39508 0.41109 0.39508 0.41109 1.0081 0 0.61306-0.41109 1.0081-0.41107 0.38146-1.3924 0.38146h-2.5858v-8.8144q0-0.64031-0.22543-0.88553-0.22543-0.24522-0.68955-0.24522-0.45087 0-0.83542 0.24522-0.49064 0.34059-1.1935 1.2806v5.6265q0.84869 0 1.2598 0.39508 0.41108 0.39508 0.41108 1.0081 0 0.61306-0.41108 1.0081-0.41107 0.38146-1.3924 0.38146h-2.5858v-8.8144q0-0.62668-0.23869-0.87191-0.22544-0.25885-0.68956-0.25885-0.47738 0-0.9415 0.31334-0.46412 0.29972-1.1139 1.2125v5.6265q0.84867 0 1.2598 0.39508 0.42434 0.39508 0.42434 1.0081 0 0.61306-0.42434 1.0081-0.41109 0.38146-1.3924 0.38146h-2.4532q-0.98129 0-1.3924-0.38146-0.42434-0.39508-0.42434-1.0218 0-0.61306 0.41108-0.99452 0.41108-0.39508 1.273-0.39508v-6.7845q-0.86194 0-1.273-0.39508-0.41108-0.39508-0.41108-1.0081 0-0.61306 0.42434-0.99452 0.41108-0.39508 1.3924-0.39508zm17.119 10.831v4.5775h1.6311q0.98128 0 1.3924 0.38146 0.42434 0.39508 0.42434 1.0218 0 0.61306-0.42434 0.99452-0.41109 0.39508-1.3924 0.39508h-4.8136q-0.98128 0-1.4056-0.39508-0.41108-0.38146-0.41108-0.99452 0-0.62668 0.42434-1.0218 0.42435-0.38146 1.3924-0.38146h0.46412v-12.615h-0.46412q-0.98128 0-1.4056-0.38146-0.41108-0.39508-0.41108-1.0218 0-0.61306 0.41108-0.99452 0.42435-0.39508 1.4056-0.39508h3.1826v0.95365q0.95476-0.66755 1.9758-0.99452 1.0211-0.32696 2.0952-0.32696 2.7847 0 4.7473 1.9482 1.9626 1.9345 1.9626 4.4413 0 2.7656-2.3206 4.5639-1.936 1.4986-4.3627 1.4986-1.0476 0-2.0687-0.31334-1.0211-0.31334-2.0289-0.94003zm8.0625-4.7955q0-0.58581-0.45086-1.485-0.45087-0.91278-1.3924-1.5122-0.92824-0.61306-2.188-0.61306-2.0289 0-3.2223 1.5667-0.80889 1.0763-0.80889 2.0708 0 1.1171 1.1537 2.1798 1.1669 1.049 2.8776 1.049 1.7239 0 2.8776-1.049 1.1537-1.049 1.1537-2.207zm14.056 6.3349v-0.65393q-1.0211 0.55857-2.2543 0.83104-1.2332 0.28609-2.241 0.28609-2.188 0-3.5538-1.1852-1.3658-1.1989-1.3658-2.643 0-1.7574 1.7371-3.256 1.7504-1.5122 4.8269-1.5122 1.2332 0 2.851 0.27247v-0.66755q0-0.62668-0.53043-1.0218-0.51716-0.39508-1.9891-0.39508-1.2067 0-3.1295 0.49045-0.71608 0.17711-1.1139 0.17711-0.54368 0-0.92825-0.39508-0.37129-0.40871-0.37129-1.0354 0-0.35421 0.13261-0.61306 0.1326-0.25885 0.37129-0.40871 0.2387-0.16348 0.99455-0.38146 1.0078-0.28609 2.0554-0.44958 1.0476-0.17711 1.8963-0.17711 2.5328 0 3.9251 1.1308 1.4056 1.1171 1.4056 3.0653v5.7491h0.46412q0.98129 0 1.3924 0.39508 0.42434 0.38146 0.42434 1.0081 0 0.61306-0.42434 1.0081-0.41108 0.38146-1.3924 0.38146zm0-4.9998q-1.6311-0.32697-3.0102-0.32697-1.6576 0-2.851 0.83104-0.7426 0.53132-0.7426 1.0763 0 0.39508 0.35805 0.64031 0.66303 0.44958 1.8167 0.44958 0.98128 0 2.2145-0.39508 1.2465-0.39508 2.2145-1.0763zm11.099-7.3703v0.94002q0.7426-0.65393 1.6311-0.9809 0.90172-0.32696 1.9493-0.32696 2.4134 0 3.8191 1.5395 1.1139 1.2261 1.1139 3.2152v5.1906q0.86194 0 1.273 0.39508 0.41107 0.38146 0.41107 1.0081 0 0.61306-0.42433 1.0081-0.41109 0.38146-1.3924 0.38146h-2.4532q-0.98128 0-1.4056-0.38146-0.41109-0.39508-0.41109-1.0218 0-0.61306 0.41109-0.99452 0.41108-0.39508 1.273-0.39508v-5.2723q0-0.91278-0.47738-1.3351-0.62325-0.54494-1.8698-0.54494-0.9415 0-1.6576 0.38146-0.70281 0.36784-1.7902 1.5803v5.1906q1.0476 0 1.3526 0.20435 0.64978 0.40871 0.64978 1.1989 0 0.61306-0.42434 1.0081-0.41109 0.38146-1.3924 0.38146h-3.0897q-0.98128 0-1.4056-0.38146-0.41108-0.39508-0.41108-1.0218 0-0.76292 0.63651-1.1852 0.31826-0.20435 1.3658-0.20435v-6.7845q-0.86195 0-1.273-0.39508-0.41107-0.39508-0.41107-1.0081 0-0.61306 0.41107-0.99452 0.42434-0.39508 1.4056-0.39508zm17.531 12.275-4.7075-9.482q-0.66304-0.081736-1.0078-0.4632-0.34477-0.38146-0.34477-0.9264 0-0.62668 0.41107-1.0081 0.42434-0.39508 1.4056-0.39508h2.4797q0.98128 0 1.3924 0.39508 0.42434 0.38146 0.42434 1.0081 0 0.61306-0.42434 1.0081-0.41108 0.38146-1.3128 0.38146l3.2091 6.4167 3.1826-6.4167q-0.8752 0-1.2995-0.38146-0.41109-0.39508-0.41109-1.0218 0-0.61306 0.41109-0.99452 0.42434-0.39508 1.4056-0.39508h2.5593q0.96802 0 1.3791 0.39508 0.42434 0.38146 0.42434 1.0081 0 0.55857-0.35804 0.95365-0.35804 0.38146-1.0609 0.43595l-6.2325 12.615q1.0211 0 1.3393 0.20435 0.63651 0.42233 0.63651 1.1989 0 0.61306-0.42434 0.99452-0.41108 0.39508-1.3924 0.39508h-5.9275q-0.9813 0-1.4056-0.39508-0.41107-0.38146-0.41107-0.99452 0-0.62668 0.41107-1.0218 0.42434-0.38146 1.4056-0.38146h2.7052z" fill="#85A9FF" stroke-width="1.819" aria-label="servise company"/>
 <path d="m122.76 48.982v5.8184h4.7882q1.7117 0 2.4288 0.79969 0.7402 0.77211 0.7402 2.0406 0 1.2409-0.7402 2.0406-0.71709 0.77211-2.4288 0.77211h-10.27q-1.7117 0-2.452-0.77211-0.71708-0.79969-0.71708-2.0682 0-1.2409 0.74021-2.013 0.74021-0.79969 2.4288-0.79969h0.74021v-22.116h-0.74021q-1.7117 0-2.452-0.77211-0.71708-0.79969-0.71708-2.0682t0.71708-2.0406q0.74021-0.79969 2.452-0.79969l10.918 0.02758q4.8114 0 7.6103 3.1436 2.822 3.116 2.822 7.6108 0 2.4818-0.9484 4.6878-0.71707 1.6545-2.4057 3.2815-1.6655 1.5994-3.4235 2.4266-1.7349 0.79969-4.6032 0.79969zm0-5.653h4.395q3.0996 0 4.9039-1.6545 1.8274-1.6821 1.8274-4.026 0-1.9854-1.4804-3.4745-1.4573-1.4891-4.1868-1.4891h-5.459zm43.071 7.4729h-19.454q0.74021 2.206 2.6139 3.5572 1.8968 1.3512 5.1121 1.3512 2.637 0 7.0089-1.3512 1.8043-0.55151 2.4982-0.55151 0.94839 0 1.5961 0.79969 0.64769 0.79969 0.64769 2.013 0 1.103-0.69395 1.8751-0.92526 1.0203-4.5106 1.9579-3.5854 0.90999-6.8932 0.90999-5.6904 0-9.1138-3.833-3.4003-3.833-3.4003-9.4308 0-5.9563 3.6779-9.679 3.701-3.7503 8.5124-3.7503 2.8914 0 5.2971 1.2133 2.4288 1.2133 3.6085 2.6197 1.6655 2.0406 2.7527 5.0463 0.74021 2.0957 0.74021 4.8533zm-5.2509-5.653q-1.0872-2.4266-2.8452-3.6124-1.758-1.2133-4.1868-1.2133-2.4057 0-4.1637 1.2133-1.758 1.1857-2.8683 3.6124zm15.313-1.4339v11.085h1.7117q3.169 0 3.169 2.8127 0 2.8403-3.169 2.8403h-6.2224q-3.169 0-3.169-2.8403 0-1.1857 0.69394-1.9854 0.69395-0.82726 1.8737-0.82726h0.3701v-13.733q-2.5214-0.2206-2.5214-2.8127 0-2.8403 3.169-2.8403h5.0427l5.5516 11.306 5.4359-11.306h5.1121q3.169 0 3.169 2.8403 0 2.5921-2.5214 2.8127v13.733q2.9377 0 2.9377 2.8127 0 2.8403-3.169 2.8403h-6.2455q-3.1459 0-3.1459-2.8403 0-2.8127 3.1459-2.8127h1.7349v-11.085l-4.6726 10.01h-3.4003zm37.196-11.03v22.116h3.1922q1.7117 0 2.4288 0.79969 0.74021 0.77211 0.74021 2.0406 0 1.2409-0.74021 2.0406-0.71708 0.77211-2.4288 0.77211h-11.103q-1.7117 0-2.4519-0.77211-0.71707-0.79969-0.71707-2.0682 0-1.2409 0.71707-2.013 0.74021-0.79969 2.4519-0.79969h3.169v-22.116h-5.1352v5.3496q0 2.0406-0.67083 2.923-0.64767 0.85484-1.7117 0.85484-1.0409 0-1.7117-0.85484-0.64767-0.88241-0.64767-2.923v-11.03l24.566 0.02758v11.003q0 2.0406-0.67081 2.923-0.64769 0.85484-1.7117 0.85484-1.0409 0-1.7117-0.85484-0.64769-0.88242-0.64769-2.923v-5.3496zm38.445 15.718q0 3.2539-1.5267 6.3148-1.5036 3.0333-4.5106 4.8533-2.984 1.7924-6.2455 1.7924-3.2384 0-6.1993-1.7648-2.9608-1.7924-4.5106-4.8533-1.5498-3.0609-1.5498-6.3975 0-3.3918 1.573-6.6457 1.5729-3.2815 4.5106-5.1566 2.9608-1.8751 6.1761-1.8751 3.2384 0 6.2224 1.9303 3.0071 1.9027 4.5338 5.1566 1.5267 3.2263 1.5267 6.6457zm-4.742 0.02758q0-2.73-1.6423-5.0187-2.2438-3.0885-5.8986-3.0885-3.2153 0-5.3665 2.4542-2.1512 2.4542-2.1512 5.6805 0 2.6472 2.1744 4.9636 2.1744 2.2888 5.3434 2.2888 3.1922 0 5.3665-2.2888 2.1744-2.3163 2.1744-4.9912zm14.966 8.9069v9.2654h2.8452q1.7117 0 2.4288 0.77211 0.7402 0.79969 0.7402 2.0682 0 1.2409-0.7402 2.013-0.71709 0.79969-2.4288 0.79969h-8.3968q-1.7117 0-2.4519-0.79969-0.71709-0.77211-0.71709-2.013 0-1.2685 0.74021-2.0682 0.74021-0.77211 2.4288-0.77211h0.80961v-25.535h-0.80961q-1.7117 0-2.4519-0.77211-0.71709-0.79969-0.71709-2.0682 0-1.2409 0.71709-2.013 0.74021-0.79969 2.4519-0.79969h5.5516v1.9303q1.6655-1.3512 3.4466-2.013t3.6548-0.66181q4.8576 0 8.2811 3.9433 3.4235 3.9157 3.4235 8.9896 0 5.5978-4.048 9.2378-3.3772 3.0333-7.6103 3.0333-1.8274 0-3.6085-0.63424-1.7811-0.63424-3.5391-1.9027zm14.064-9.7066q0-1.1857-0.78647-3.0057-0.78648-1.8476-2.4288-3.0609-1.6192-1.2409-3.8167-1.2409-3.5391 0-5.621 3.1712-1.411 2.1785-1.411 4.1915 0 2.2612 2.0124 4.4121 2.0356 2.1233 5.0196 2.1233 3.0071 0 5.0196-2.1233t2.0124-4.4672zm18.274 7.1696h2.7758q3.169 0 3.169 2.8403 0 2.8127-3.169 2.8127h-10.27q-3.169 0-3.169-2.8403 0-2.8127 3.169-2.8127h2.7527v-13.733h-2.7527q-3.169 0-3.169-2.8127 0-2.8403 3.169-2.8403h22.461v11.003q0 3.7778-2.3594 3.7778-2.3826 0-2.3826-3.7778v-5.3496h-10.224zm33.518-11.389 7.911 11.389q1.411 0.02758 2.105 0.82726 0.71708 0.77211 0.71708 2.013 0 1.2409-0.74021 2.0406-0.71708 0.77211-2.4288 0.77211h-5.3434q-1.6886 0-2.4288-0.77211-0.71708-0.79969-0.71708-2.0682 0-1.1857 0.67082-1.9579 0.67081-0.79969 2.0124-0.85484l-4.7651-7.0042-4.8114 7.0042q1.3185 0.05515 1.9893 0.85484 0.67082 0.79969 0.67082 1.9854 0 1.2409-0.74022 2.0406-0.71707 0.77211-2.4288 0.77211h-5.3203q-1.7117 0-2.4519-0.77211-0.71709-0.79969-0.71709-2.0682 0-1.2133 0.71709-2.013 0.71707-0.79969 2.105-0.79969l7.8647-11.444-7.4946-10.672q-1.3879-0.05515-2.0818-0.82726-0.67081-0.79969-0.67081-2.013 0-1.2685 0.71707-2.0406 0.74021-0.79969 2.452-0.79969l4.3719 0.02758q1.7117 0 2.4288 0.77211 0.74021 0.77211 0.74021 2.0406 0 0.93756-0.46263 1.7097-0.30071 0.46878-1.3416 1.1306l4.4181 6.3148 4.3256-6.3148q-1.0409-0.66181-1.3416-1.1306-0.46263-0.77211-0.46263-1.7097 0-1.2409 0.71707-2.0406 0.74021-0.79969 2.452-0.79969l4.3487 0.02758q1.7117 0 2.4288 0.77211 0.74021 0.77211 0.74021 2.0406 0 1.2133-0.71708 2.013-0.69394 0.79969-2.0356 0.82726zm37.635 4.9912q0 3.2539-1.5267 6.3148-1.5036 3.0333-4.5106 4.8533-2.984 1.7924-6.2455 1.7924-3.2384 0-6.1993-1.7648-2.9608-1.7924-4.5106-4.8533-1.5498-3.0609-1.5498-6.3975 0-3.3918 1.573-6.6457 1.573-3.2815 4.5107-5.1566 2.9608-1.8751 6.1761-1.8751 3.2384 0 6.2224 1.9303 3.0071 1.9027 4.5338 5.1566 1.5267 3.2263 1.5267 6.6457zm-4.742 0.02758q0-2.73-1.6423-5.0187-2.2438-3.0884-5.8986-3.0884-3.2153 0-5.3665 2.4542t-2.1512 5.6805q0 2.6472 2.1744 4.9636 2.1744 2.2888 5.3434 2.2888 3.1922 0 5.3665-2.2888 2.1744-2.3163 2.1744-4.9912zm29.955-7.3626v13.733q3.2616 0 3.2616 2.8127 0 1.5442-0.8096 2.206-0.80961 0.63424-3.1459 0.63424h-3.331q-2.3132 0-3.1459-0.63424-0.80961-0.63424-0.80961-2.206 0-2.8127 3.2384-2.8127v-13.733h-6.153v10.23q0 4.936-2.0356 7.4178-2.0356 2.4542-5.5284 2.4542-4.6726 0-4.6726-2.2612v-2.8954q0-2.3991 0.50889-3.3091 0.50889-0.90999 1.7117-0.90999 2.1744 0 2.29 3.5297l0.50889 0.02758q1.2722 0 1.8737-0.88241 0.60141-0.90999 0.60141-3.1712v-10.23q-2.5676 0-3.4235-0.60666-0.83273-0.60666-0.83273-2.206 0-1.5442 0.8096-2.1785 0.8096-0.66181 3.1459-0.66181h15.244q2.3132 0 3.1228 0.66181 0.83274 0.63424 0.83274 2.1785 0 1.3236-0.76334 2.0957-0.74021 0.74454-2.4982 0.71696zm31.644 7.3351q0 3.2539-1.5267 6.3148-1.5036 3.0333-4.5107 4.8533-2.984 1.7924-6.2455 1.7924-3.2384 0-6.1993-1.7648-2.9608-1.7924-4.5106-4.8533-1.5498-3.0609-1.5498-6.3975 0-3.3918 1.573-6.6457 1.573-3.2815 4.5106-5.1566 2.9608-1.8751 6.1761-1.8751 3.2384 0 6.2224 1.9303 3.0071 1.9027 4.5338 5.1566 1.5267 3.2263 1.5267 6.6457zm-4.742 0.02758q0-2.73-1.6423-5.0187-2.2438-3.0885-5.8986-3.0885-3.2153 0-5.3665 2.4542-2.1512 2.4542-2.1512 5.6805 0 2.6472 2.1744 4.9636 2.1744 2.2888 5.3434 2.2888 3.1922 0 5.3665-2.2888 2.1744-2.3163 2.1744-4.9912zm28.729 12.023h-15.753v2.2612q0 2.5369-0.53203 3.4745-0.50889 0.93756-1.8274 0.93756-1.5498 0-1.9662-0.99272-0.41636-0.96514-0.41636-3.6124v-7.7211h1.3879q3.0996 0 4.1868-1.296 1.1103-1.296 1.1103-5.3496v-7.0869q-0.30071 0.02758-0.62455 0.02758-3.2616 0-3.2616-2.8403 0-1.5442 0.8096-2.1785 0.80961-0.66181 3.1459-0.66181h14.527q2.3132 0 3.1228 0.66181 0.83275 0.63424 0.83275 2.1785 0 2.8127-3.2384 2.8127v13.733q1.6192 0 2.2438 0.55151 0.64769 0.52394 0.80961 1.2409 0.18506 0.68938 0.18506 2.923v3.0057q0 2.6748-0.53203 3.64-0.5089 0.96514-1.8043 0.96514-2.4057 0-2.4057-4.2466zm-9.0676-19.386v7.0869q0 4.0536-1.4342 6.6457h7.2633v-13.733z" fill="#25b003" stroke-width="1.709" aria-label="РемТоргХолод"/>
</svg>
