<?xml version="1.0" encoding="UTF-8"?>
<!-- Created with Inkscape (http://www.inkscape.org/) -->
<svg width="43.992" height="26.731" version="1.1" viewBox="0 0 43.992 26.731" xmlns="http://www.w3.org/2000/svg">
 <g transform="matrix(.43261 0 0 .43469 -17.944 -7.0226)">
  <path d="m135.44 52.473-4.5972 5.1724-1.8871 1.6515s-2.2455 1.424-3.4733 1.9136c-1.389 0.55385-4.3405 1.1328-4.3405 1.1328s-2.6038 0.47492-3.9111 0.38923c-1.3234-0.08674-3.8738-0.90743-3.8738-0.90743s-2.4784-1.03-3.651-1.677c-1.4733-0.81292-4.2287-2.7572-4.2287-2.7572l-2.88-3.1332-1.6093-2.8893c-0.65426-3.0697-0.92961-5.4356 0.10641-9.5159 0.30425-1.1983 1.2377-3.4964 1.2377-3.4964l1.625-3.2378 1.9911-2.478 2.6939-2.7254 1.4998-1.9102-0.39703-0.8476-4.6728-2.8971-7.1003-3.6225-2.7494 1.1652s-1.3388 1.3316-1.7015 2.1786c-0.26236 0.61275-0.39266 1.3196-0.29102 1.9784 0.16676 1.0809 1.4336 2.9511 1.4336 2.9511l4.8147 6.1054-1.729 4.0642-8.3395 1.5529s-2.7697 0.3661-3.571 1.3556c-0.6206 0.76636-0.44196 1.9376-0.45199 2.9236-0.0077 0.76103 0.04734 1.5461 0.30284 2.263 0.24561 0.68818 1.1504 1.866 1.1504 1.866l1.9573 0.79212 4.0186 0.75773 5.2583 0.9138 1.6648 4.4495-3.2534 4.5021-1.8267 3.5062-0.27483 1.1828s-0.04179 1.311 0.17916 1.9116c0.27821 0.75643 0.78876 1.4408 1.388 1.9798 0.83379 0.75001 1.8247 1.5492 2.9433 1.6299 1.3318 0.09611 3.7467-1.4174 3.7467-1.4174l6.7105-5.6201 2.6699 1.1337s1.6164 8.3605 3.0484 11.466c0.49667 1.0772 2.0779 1.3897 3.2638 1.4184 1.3349 0.03225 2.7631-0.51434 3.7467-1.4174 0.54979-0.50478 0.96782-2.0191 0.96782-2.0191l1.8472-9.3388 4.3307-1.7217 4.6827 3.486s2.82 2.5752 4.5801 2.6335c0.53111 0.01761 1.0116-0.37581 1.4316-0.70136 0.53869-0.41754 1.329-1.5539 1.329-1.5539s0.68104-0.9347 0.97764-1.4302c0.34972-0.58418 0.95838-1.1318 0.94181-1.8125-0.0562-2.3069-3.4871-5.9802-3.4871-5.9802z" fill="#3874ff"/>
  <path d="m45.17 34.553-2.2352-6.4262s-2.0168-4.6041-1.3039-6.7988c0.21035-0.64755 0.96631-0.96207 1.4901-1.397 0.44428-0.36889 1.397-1.0245 1.397-1.0245s1.1228-0.80946 1.7695-1.0245c0.50426-0.16764 1.0881-0.37921 1.5833-0.18627 1.6409 0.63942 3.4459 4.0048 3.4459 4.0048l3.2597 4.843 4.6567-0.18627 4.843-8.1958s0.89709-1.2897 1.5833-1.5833c1.2276-0.5253 2.7563-0.56672 4.0048-0.09313 1.1091 0.42072 2.4969 1.2405 2.6077 2.4215 0.31961 3.4051-0.93134 11.828-0.93134 11.828l2.1421 1.9558 8.1958-3.0734s2.7804-0.62594 4.0048-0.09313c1.0283 0.4475 1.6977 1.5303 2.2352 2.5146 0.38628 0.70737 0.64064 1.5225 0.65194 2.3283 9e-3 0.63994-0.46567 1.8627-0.46567 1.8627l-0.65194 1.0245-2.8871 2.7009-4.5636 3.1665 0.09313 4.7498 4.6567 2.6077 3.5391 2.0489 1.5833 1.397s0.4625 1.4114 0.46567 2.1421c0.0033 0.76106-0.2057 1.5199-0.46567 2.2352-0.33684 0.92681-0.55718 2.0909-1.397 2.6077-1.0843 0.66732-3.8185 0.09313-3.8185 0.09313l-8.382-1.3039-2.9803 3.2597 2.5146 7.3576s0.57407 2.1848 0.37254 3.2597c-0.12284 0.65514-0.48042 1.2787-0.93134 1.7695-0.62335 0.67861-2.3283 1.4901-2.3283 1.4901l-2.9803 0.18627-5.4949-5.7743-3.4459-4.2842-0.09313-0.93134 2.0489-1.3039 3.4459-1.6764 2.7009-1.6764 2.6077-2.5146s1.6435-1.8578 2.3283-2.8871c2.3319-3.5049 2.8577-5.8281 3.2597-8.9408l-0.5588-3.2597-1.6764-3.9116s-1.9535-2.7488-3.0734-4.0048c-0.89128-0.99959-2.8871-2.794-2.8871-2.794s-2.1333-1.6209-3.3528-2.1421c-1.2047-0.51487-3.8185-0.93134-3.8185-0.93134s-2.9764-0.43383-4.4704-0.37254c-1.3207 0.05419-3.9116 0.65194-3.9116 0.65194l-2.3283 0.93134z" fill="#25b003"/>
 </g>
 <g transform="matrix(.43253 .0081235 -.0080845 .43462 -17.311 -7.8145)" stroke="#25b003" stroke-width="1.4098">
  <path d="m70.431 40.388-24.691 14.583" fill="#fff"/>
  <path d="m52.155 35.391 13.784 25.146" fill="#38bb3b"/>
 </g>
 <g transform="matrix(.395 .20741 -.21446 .38202 20.293 -17.807)" stroke="#3874ff">
  <path d="m73.355 39.402-27.436 14.832" fill="#fff" stroke-width="1.4688"/>
  <path d="m50.465 32.278 15.475 28.261" fill="none" stroke-width="1.4917"/>
 </g>
</svg>
