<?xml version="1.0" ?><svg style="enable-background:new 0 0 512 512;" version="1.1" viewBox="0 0 512 512" xml:space="preserve" xmlns="http://www.w3.org/2000/svg" xmlns:xlink="http://www.w3.org/1999/xlink"><style type="text/css">
	.st0{fill:#25D366;}
	.st1{opacity:0.2;fill:#FFFFFF;}
	.st2{fill-rule:evenodd;clip-rule:evenodd;fill:#E6E7E8;}
</style><g id="outerdark"><path class="st0" d="M256.5,20C126.4,20,21,125.4,21,255.5S126.4,491,256.5,491S492,385.6,492,255.5S386.6,20,256.5,20z M256,460.5   c-112.9,0-204.5-91.6-204.5-204.5S143.1,51.5,256,51.5S460.5,143.1,460.5,256S368.9,460.5,256,460.5z"/></g><g id="outerlight"><path class="st1" d="M423.1,89l-22.4,22.4c37,37,59.8,88.1,59.8,144.6c0,112.9-91.6,204.5-204.5,204.5   c-56.4,0-107.6-22.9-144.6-59.8L90,422.1c92,92,241.1,92,333,0S515,181,423.1,89z"/></g><g id="innerdark"><circle class="st0" cx="256" cy="256" r="180"/></g><g id="Whatsapp"><g id="WA_Logo"><g><path class="st2" d="M328.5,182.7c-19.5-19.5-45.5-30.3-73.2-30.3c-57,0-103.4,46.4-103.4,103.4c0,18.2,4.8,36,13.8,51.7     l-14.7,53.6l54.8-14.4c15.1,8.2,32.1,12.6,49.4,12.6h0c0,0,0,0,0,0c57,0,103.4-46.4,103.4-103.4     C358.8,228.3,348.1,202.3,328.5,182.7z M255.4,341.9L255.4,341.9c-15.5,0-30.6-4.2-43.8-12l-3.1-1.9l-32.5,8.5l8.7-31.7l-2-3.3     c-8.6-13.7-13.1-29.5-13.1-45.7c0-47.4,38.6-86,86-86c23,0,44.5,9,60.8,25.2c16.2,16.2,25.2,37.8,25.2,60.8     C341.3,303.3,302.7,341.9,255.4,341.9z M302.5,277.5c-2.6-1.3-15.3-7.5-17.7-8.4c-2.4-0.9-4.1-1.3-5.8,1.3     c-1.7,2.6-6.7,8.4-8.2,10.1c-1.5,1.7-3,1.9-5.6,0.6c-2.6-1.3-10.9-4-20.8-12.8c-7.7-6.9-12.9-15.3-14.4-17.9     c-1.5-2.6-0.2-4,1.1-5.3c1.2-1.2,2.6-3,3.9-4.5c1.3-1.5,1.7-2.6,2.6-4.3c0.9-1.7,0.4-3.2-0.2-4.5c-0.6-1.3-5.8-14-8-19.2     c-2.1-5-4.2-4.4-5.8-4.4c-1.5-0.1-3.2-0.1-5-0.1c-1.7,0-4.5,0.6-6.9,3.2c-2.4,2.6-9,8.8-9,21.6c0,12.7,9.3,25,10.6,26.7     c1.3,1.7,18.2,27.8,44.1,39c6.2,2.7,11,4.3,14.7,5.4c6.2,2,11.8,1.7,16.3,1c5-0.7,15.3-6.3,17.4-12.3c2.2-6,2.2-11.2,1.5-12.3     C306.8,279.4,305.1,278.8,302.5,277.5z"/></g></g></g><g id="innerlight"><path class="st1" d="M128.1,382.6c-70.3-70.3-70.3-184.3,0-254.6s184.3-70.3,254.6,0"/></g></svg>