<?xml version="1.0" encoding="UTF-8"?>
<svg width="30" height="30" version="1.1" xmlns="http://www.w3.org/2000/svg">
 <path d="m-0.017762 14.996c0-8.2347 6.714-14.91 15-14.91 8.283 0 15 6.6751 15 14.91 0 8.2347-6.717 14.91-15 14.91-8.286 0-15-6.6751-15-14.91z" fill="#fc3f1d" stroke-width="1.4955"/>
 <path d="m16.294 8.9298h-1.321c-2.4219 0-3.6957 1.1474-3.6957 2.8392 0 1.9124 0.88067 2.8084 2.6892 3.9572l1.494 0.94148-4.2933 6.0006h-3.2082l3.853-5.3681c-2.216-1.4858-3.4598-2.9288-3.4598-5.3694 0-3.0598 2.2803-5.1487 6.6051-5.1487h4.2933v15.872h-2.9565z" fill="#fff" stroke-width="1.3827"/>
</svg>
